<svg width="19" height="19" viewBox="0 0 19 19" fill="none" xmlns="http://www.w3.org/2000/svg">
<path d="M11 4L15 8M11 4L13.293 1.707C13.4805 1.51953 13.7348 1.41422 14 1.41422C14.2652 1.41422 14.5195 1.51953 14.707 1.707L17.293 4.293C17.4805 4.48053 17.5858 4.73484 17.5858 5C17.5858 5.26517 17.4805 5.51947 17.293 5.707L15 8L11 4ZM11 4L1.293 13.707C1.10545 13.8945 1.00006 14.1488 1 14.414V17C1 17.2652 1.10536 17.5196 1.29289 17.7071C1.48043 17.8946 1.73478 18 2 18H4.586C4.85119 17.9999 5.10551 17.8946 5.293 17.707L15 8L11 4Z" stroke="black" stroke-width="2" stroke-linecap="round" stroke-linejoin="round"/>
</svg>
